<mxfile host="65bd71144e">
    <diagram id="g8BaiUEQjRoZm-5A0h6i" name="Page-1">
        <mxGraphModel dx="1201" dy="814" grid="1" gridSize="10" guides="1" tooltips="1" connect="1" arrows="1" fold="1" page="1" pageScale="1" pageWidth="850" pageHeight="1100" math="0" shadow="0">
            <root>
                <mxCell id="0"/>
                <mxCell id="1" parent="0"/>
                <mxCell id="30" value="" style="rounded=0;whiteSpace=wrap;html=1;" vertex="1" parent="1">
                    <mxGeometry x="760" y="120" width="920" height="400" as="geometry"/>
                </mxCell>
                <mxCell id="2" value="" style="rounded=0;whiteSpace=wrap;html=1;fillColor=none;fontSize=10;" parent="1" vertex="1">
                    <mxGeometry x="1120" y="160" width="520" height="320" as="geometry"/>
                </mxCell>
                <mxCell id="4" value="Node" style="text;html=1;align=center;verticalAlign=middle;resizable=0;points=[];autosize=1;strokeColor=none;fillColor=none;fontFamily=JetBrains Mono;fontSource=https%3A%2F%2Ffonts.googleapis.com%2Fcss%3Ffamily%3DJetBrains%2BMono;fontSize=10;" parent="1" vertex="1">
                    <mxGeometry x="1120" y="130" width="50" height="30" as="geometry"/>
                </mxCell>
                <mxCell id="9" style="edgeStyle=orthogonalEdgeStyle;html=1;exitX=0.5;exitY=1;exitDx=0;exitDy=0;entryX=0;entryY=0.5;entryDx=0;entryDy=0;fontFamily=JetBrains Mono;fontSource=https%3A%2F%2Ffonts.googleapis.com%2Fcss%3Ffamily%3DJetBrains%2BMono;fontSize=10;" parent="1" source="5" target="8" edge="1">
                    <mxGeometry relative="1" as="geometry">
                        <Array as="points">
                            <mxPoint x="1260" y="260"/>
                            <mxPoint x="1140" y="260"/>
                            <mxPoint x="1140" y="330"/>
                        </Array>
                    </mxGeometry>
                </mxCell>
                <mxCell id="5" value="ingress&lt;br style=&quot;font-size: 10px;&quot;&gt;https://ws.example.com" style="rounded=0;whiteSpace=wrap;html=1;fontFamily=JetBrains Mono;fontSource=https%3A%2F%2Ffonts.googleapis.com%2Fcss%3Ffamily%3DJetBrains%2BMono;fillColor=#38cda9;fontSize=10;fontColor=#f5f5fb;strokeColor=#38cda9;" parent="1" vertex="1">
                    <mxGeometry x="1160" y="200" width="200" height="40" as="geometry"/>
                </mxCell>
                <mxCell id="6" value="svc jump-host" style="rounded=0;whiteSpace=wrap;html=1;fontFamily=JetBrains Mono;fontSource=https%3A%2F%2Ffonts.googleapis.com%2Fcss%3Ffamily%3DJetBrains%2BMono;fillColor=#38cda9;align=left;spacing=10;fontSize=10;fontColor=#f5f5fb;strokeColor=#38cda9;" parent="1" vertex="1">
                    <mxGeometry x="1160" y="280" width="200" height="40" as="geometry"/>
                </mxCell>
                <mxCell id="16" style="edgeStyle=orthogonalEdgeStyle;html=1;exitX=1;exitY=0.5;exitDx=0;exitDy=0;entryX=0;entryY=0.5;entryDx=0;entryDy=0;fontFamily=JetBrains Mono;fontSource=https%3A%2F%2Ffonts.googleapis.com%2Fcss%3Ffamily%3DJetBrains%2BMono;fontSize=10;" parent="1" source="7" target="20" edge="1">
                    <mxGeometry relative="1" as="geometry"/>
                </mxCell>
                <mxCell id="7" value="ssh: 2222 -&amp;gt; 2222 / node-port" style="rounded=0;whiteSpace=wrap;html=1;fontFamily=JetBrains Mono;fontSource=https%3A%2F%2Ffonts.googleapis.com%2Fcss%3Ffamily%3DJetBrains%2BMono;fillColor=#6a01ff;align=left;spacing=10;fontSize=10;fontColor=#f5f5fb;strokeColor=#6a01ff;" parent="1" vertex="1">
                    <mxGeometry x="1160" y="340" width="200" height="20" as="geometry"/>
                </mxCell>
                <mxCell id="17" style="edgeStyle=orthogonalEdgeStyle;html=1;exitX=1;exitY=0.5;exitDx=0;exitDy=0;entryX=0;entryY=0.5;entryDx=0;entryDy=0;fontFamily=JetBrains Mono;fontSource=https%3A%2F%2Ffonts.googleapis.com%2Fcss%3Ffamily%3DJetBrains%2BMono;fontSize=10;" parent="1" source="8" target="19" edge="1">
                    <mxGeometry relative="1" as="geometry"/>
                </mxCell>
                <mxCell id="8" value="ws: 8080 -&amp;gt; 8080&amp;nbsp;" style="rounded=0;whiteSpace=wrap;html=1;fontFamily=JetBrains Mono;fontSource=https%3A%2F%2Ffonts.googleapis.com%2Fcss%3Ffamily%3DJetBrains%2BMono;fillColor=#408bff;align=left;spacing=10;fontSize=10;strokeColor=#408bff;fontColor=#f5f5fb;" parent="1" vertex="1">
                    <mxGeometry x="1160" y="320" width="200" height="20" as="geometry"/>
                </mxCell>
                <mxCell id="24" style="edgeStyle=orthogonalEdgeStyle;html=1;exitX=1;exitY=0.5;exitDx=0;exitDy=0;entryX=0;entryY=0.5;entryDx=0;entryDy=0;fontFamily=JetBrains Mono;fontSource=https%3A%2F%2Ffonts.googleapis.com%2Fcss%3Ffamily%3DJetBrains%2BMono;fontSize=8;fontColor=default;" parent="1" source="10" target="5" edge="1">
                    <mxGeometry relative="1" as="geometry"/>
                </mxCell>
                <mxCell id="10" value="" style="ellipse;whiteSpace=wrap;html=1;aspect=fixed;fontFamily=JetBrains Mono;fontSource=https%3A%2F%2Ffonts.googleapis.com%2Fcss%3Ffamily%3DJetBrains%2BMono;fontSize=10;fillColor=#cdd1e6;strokeColor=#02003e;" parent="1" vertex="1">
                    <mxGeometry x="1110" y="210" width="20" height="20" as="geometry"/>
                </mxCell>
                <mxCell id="12" value="http/https" style="text;html=1;align=center;verticalAlign=middle;resizable=0;points=[];autosize=1;strokeColor=none;fillColor=none;fontSize=10;fontFamily=JetBrains Mono;" parent="1" vertex="1">
                    <mxGeometry x="1040" y="180" width="80" height="30" as="geometry"/>
                </mxCell>
                <mxCell id="18" style="edgeStyle=orthogonalEdgeStyle;html=1;entryX=0.5;entryY=0;entryDx=0;entryDy=0;fontFamily=JetBrains Mono;fontSource=https%3A%2F%2Ffonts.googleapis.com%2Fcss%3Ffamily%3DJetBrains%2BMono;fontSize=10;exitX=0.5;exitY=1;exitDx=0;exitDy=0;" parent="1" source="20" target="15" edge="1">
                    <mxGeometry relative="1" as="geometry"/>
                </mxCell>
                <mxCell id="14" value="" style="rounded=0;whiteSpace=wrap;html=1;fontFamily=JetBrains Mono;fontSource=https%3A%2F%2Ffonts.googleapis.com%2Fcss%3Ffamily%3DJetBrains%2BMono;fontSize=10;fillColor=none;" parent="1" vertex="1">
                    <mxGeometry x="1440" y="260" width="160" height="120" as="geometry"/>
                </mxCell>
                <mxCell id="15" value="VM" style="rounded=0;whiteSpace=wrap;html=1;fontFamily=JetBrains Mono;fontSource=https%3A%2F%2Ffonts.googleapis.com%2Fcss%3Ffamily%3DJetBrains%2BMono;fontSize=10;fillColor=#0064ff;fontColor=#f5f5fb;strokeColor=#0064ff;" parent="1" vertex="1">
                    <mxGeometry x="1440" y="400" width="160" height="40" as="geometry"/>
                </mxCell>
                <mxCell id="21" style="edgeStyle=orthogonalEdgeStyle;html=1;exitX=0.5;exitY=1;exitDx=0;exitDy=0;fontFamily=JetBrains Mono;fontSource=https%3A%2F%2Ffonts.googleapis.com%2Fcss%3Ffamily%3DJetBrains%2BMono;fontSize=10;" parent="1" source="19" target="20" edge="1">
                    <mxGeometry relative="1" as="geometry"/>
                </mxCell>
                <mxCell id="19" value="wstunnel :8080" style="rounded=0;whiteSpace=wrap;html=1;fontFamily=JetBrains Mono;fontSource=https%3A%2F%2Ffonts.googleapis.com%2Fcss%3Ffamily%3DJetBrains%2BMono;fontSize=10;fillColor=#408bff;fontColor=#f5f5fb;strokeColor=#408bff;" parent="1" vertex="1">
                    <mxGeometry x="1460" y="280" width="120" height="20" as="geometry"/>
                </mxCell>
                <mxCell id="20" value="sshd :2222" style="rounded=0;whiteSpace=wrap;html=1;fontFamily=JetBrains Mono;fontSource=https%3A%2F%2Ffonts.googleapis.com%2Fcss%3Ffamily%3DJetBrains%2BMono;fontSize=10;fillColor=#6a01ff;fontColor=#f5f5fb;strokeColor=#6a01ff;" parent="1" vertex="1">
                    <mxGeometry x="1460" y="340" width="120" height="20" as="geometry"/>
                </mxCell>
                <mxCell id="23" style="edgeStyle=orthogonalEdgeStyle;html=1;exitX=1;exitY=0.5;exitDx=0;exitDy=0;fontFamily=JetBrains Mono;fontSource=https%3A%2F%2Ffonts.googleapis.com%2Fcss%3Ffamily%3DJetBrains%2BMono;fontSize=8;fontColor=default;" parent="1" source="22" target="10" edge="1">
                    <mxGeometry relative="1" as="geometry"/>
                </mxCell>
                <mxCell id="22" value="wstunnel client \&lt;br&gt;&amp;nbsp; -L tcp://9999:127.0.0.1:2222\&lt;br&gt;&amp;nbsp; wss://ws.example.com:443 &amp;amp;&lt;br&gt;&lt;br&gt;/usr/bin/ssh -A&amp;nbsp;-J user@127.0.0.1:9999 \&lt;br&gt;&amp;nbsp; &amp;lt;vmuser&amp;gt;@&amp;lt;vmip&amp;gt;" style="rounded=1;whiteSpace=wrap;fontFamily=JetBrains Mono;fontSource=https%3A%2F%2Ffonts.googleapis.com%2Fcss%3Ffamily%3DJetBrains%2BMono;fontSize=8;fillColor=#02003e;fontColor=#f5f5fb;labelBackgroundColor=none;align=left;spacing=10;verticalAlign=middle;spacingTop=0;html=1;strokeColor=#02003e;fontStyle=1" parent="1" vertex="1">
                    <mxGeometry x="820" y="180" width="220" height="80" as="geometry"/>
                </mxCell>
                <mxCell id="27" style="edgeStyle=orthogonalEdgeStyle;html=1;exitX=1;exitY=0.5;exitDx=0;exitDy=0;fontFamily=JetBrains Mono;fontSource=https%3A%2F%2Ffonts.googleapis.com%2Fcss%3Ffamily%3DJetBrains%2BMono;fontSize=8;fontColor=default;" parent="1" source="25" target="26" edge="1">
                    <mxGeometry relative="1" as="geometry"/>
                </mxCell>
                <mxCell id="25" value="/usr/bin/ssh -A \&lt;br&gt;&amp;nbsp; -J user@&amp;lt;node-ip&amp;gt;:&amp;lt;node-port&amp;gt; \&lt;br&gt;&amp;nbsp; &amp;lt;vmuser&amp;gt;@&amp;lt;vmip&amp;gt;" style="rounded=1;whiteSpace=wrap;fontFamily=JetBrains Mono;fontSource=https%3A%2F%2Ffonts.googleapis.com%2Fcss%3Ffamily%3DJetBrains%2BMono;fontSize=8;fillColor=#02003e;fontColor=#f5f5fb;labelBackgroundColor=none;align=left;spacing=10;verticalAlign=middle;spacingTop=0;html=1;strokeColor=#02003e;fontStyle=1" parent="1" vertex="1">
                    <mxGeometry x="820" y="360" width="220" height="80" as="geometry"/>
                </mxCell>
                <mxCell id="29" style="edgeStyle=orthogonalEdgeStyle;html=1;exitX=1;exitY=0.5;exitDx=0;exitDy=0;entryX=0;entryY=0.5;entryDx=0;entryDy=0;fontFamily=JetBrains Mono;fontSource=https%3A%2F%2Ffonts.googleapis.com%2Fcss%3Ffamily%3DJetBrains%2BMono;fontSize=8;fontColor=default;" parent="1" source="26" target="7" edge="1">
                    <mxGeometry relative="1" as="geometry"/>
                </mxCell>
                <mxCell id="26" value="" style="ellipse;whiteSpace=wrap;html=1;aspect=fixed;fontFamily=JetBrains Mono;fontSource=https%3A%2F%2Ffonts.googleapis.com%2Fcss%3Ffamily%3DJetBrains%2BMono;fontSize=10;fillColor=#cdd1e6;strokeColor=#02003e;" parent="1" vertex="1">
                    <mxGeometry x="1110" y="390" width="20" height="20" as="geometry"/>
                </mxCell>
                <mxCell id="28" value="node-port" style="text;html=1;align=center;verticalAlign=middle;resizable=0;points=[];autosize=1;strokeColor=none;fillColor=none;fontSize=10;fontFamily=JetBrains Mono;" parent="1" vertex="1">
                    <mxGeometry x="1040" y="365" width="80" height="30" as="geometry"/>
                </mxCell>
            </root>
        </mxGraphModel>
    </diagram>
</mxfile>
